Coordinates
version=1
nRows=4
nColumns=114
inDegrees=yes

Units are S.I. units (second, meters, Newtons, ...)
If the header above contains a line with 'inDegrees', this indicates whether rotational values are in degrees (yes) or radians (no).

endheader 
time	pelvis_tilt	pelvis_list	pelvis_rotation	pelvis_tx	pelvis_ty	pelvis_tz	hip_flexion_l	hip_adduction_l	hip_rotation_l	hip_flexion_r	hip_adduction_r	hip_rotation_r	knee_angle_l	knee_angle_r	ankle_angle_l	ankle_angle_r	subtalar_angle_l	subtalar_angle_r	mtp_angle_l	mtp_angle_r	lumbar_extension	lumbar_bending	lumbar_rotation	arm_flex_l	arm_add_l	arm_rot_l	arm_flex_r	arm_add_r	arm_rot_r	elbow_flex_l	elbow_flex_r	pro_sup_l	pro_sup_r	addbrev_l/activation	addlong_l/activation	addmagDist_l/activation	addmagIsch_l/activation	addmagMid_l/activation	addmagProx_l/activation	bflh_l/activation	bfsh_l/activation	edl_l/activation	ehl_l/activation	fdl_l/activation	fhl_l/activation	gaslat_l/activation	gasmed_l/activation	glmax1_l/activation	glmax2_l/activation	glmax3_l/activation	glmed1_l/activation	glmed2_l/activation	glmed3_l/activation	glmin1_l/activation	glmin2_l/activation	glmin3_l/activation	grac_l/activation	iliacus_l/activation	perbrev_l/activation	perlong_l/activation	piri_l/activation	psoas_l/activation	recfem_l/activation	sart_l/activation	semimem_l/activation	semiten_l/activation	soleus_l/activation	tfl_l/activation	tibant_l/activation	tibpost_l/activation	vasint_l/activation	vaslat_l/activation	vasmed_l/activation	addbrev_r/activation	addlong_r/activation	addmagDist_r/activation	addmagIsch_r/activation	addmagMid_r/activation	addmagProx_r/activation	bflh_r/activation	bfsh_r/activation	edl_r/activation	ehl_r/activation	fdl_r/activation	fhl_r/activation	gaslat_r/activation	gasmed_r/activation	glmax1_r/activation	glmax2_r/activation	glmax3_r/activation	glmed1_r/activation	glmed2_r/activation	glmed3_r/activation	glmin1_r/activation	glmin2_r/activation	glmin3_r/activation	grac_r/activation	iliacus_r/activation	perbrev_r/activation	perlong_r/activation	piri_r/activation	psoas_r/activation	recfem_r/activation	sart_r/activation	semimem_r/activation	semiten_r/activation	soleus_r/activation	tfl_r/activation	tibant_r/activation	tibpost_r/activation	vasint_r/activation	vaslat_r/activation	vasmed_r/activation	
          0.80000000	         -3.67920992	          7.89887708	        -42.43183793	          1.12674048	          0.92128003	          0.21091268	         25.72478942	          7.16525075	          4.28775296	          6.74764227	        -10.46655400	         -8.52696582	         32.23037307	         26.94416589	          5.01010416	         -0.06313025	        -16.88376650	         -6.14550048	         -1.52739253	        -39.04143732	        -21.77707484	         -2.87162554	         -3.42843112	        -33.98239576	        -24.64523666	         23.14245145	        -32.01826304	        -40.03825372	         -8.77936076	         44.02861190	         98.14370262	         65.61052465	         95.59247898	          0.02153834	          0.02076774	          0.04754557	          0.08014983	          0.02878203	          0.02958970	          0.18331416	          0.09674803	          0.08822600	          0.02126037	          0.05648869	          0.10023108	          0.28233218	          0.33417297	          0.06702535	          0.05513121	          0.10310879	          0.01014986	          0.01020120	          0.01374689	          0.01039360	          0.01035997	          0.01053734	          0.07677576	          0.02202259	          0.04599804	          0.04071245	          0.06223953	          0.14849312	          0.01674604	          0.13238002	          0.30565062	          0.22361308	          0.23376947	          0.01013996	          0.14441245	          0.10978073	          0.01006819	          0.01002060	          0.01004656	          0.01049236	          0.01051096	          0.01020992	          0.01484290	          0.01018456	          0.01038690	          0.06951543	          0.40226279	          0.21115499	          0.02830896	          0.02017171	          0.02071948	          0.38651162	          0.56111655	          0.03127668	          0.02926181	          0.01206365	          0.16527120	          0.09067103	          0.06473529	          0.08726855	          0.07161601	          0.08319525	          0.05458399	          0.18967577	          0.03984317	          0.48279898	          0.10928409	          0.28465798	          0.01413694	          0.41476307	          0.18938925	          0.16317480	          0.03436332	          0.12621514	          0.04263156	          0.02071023	          0.01002625	          0.01000843	          0.14593271	
          0.81000000	         -3.77872521	          6.68177922	        -42.36141575	          1.13066474	          0.92148366	          0.21339355	         23.65780139	          6.08802047	          3.96521927	          7.34212520	         -9.72710310	         -8.42334572	         30.66568180	         30.12113448	          4.06467235	         -0.97225766	        -16.22867546	         -7.48853500	         -3.67943629	        -39.61349780	        -21.71713457	         -1.94848608	         -2.78984110	        -31.30108596	        -24.78369330	         20.43267902	        -33.03809144	        -38.90680906	         -9.06584780	         44.80351634	         94.13590882	         66.68819181	         94.03230211	          0.01797283	          0.01732132	          0.03970818	          0.06693794	          0.02402651	          0.02469322	          0.15278634	          0.08071161	          0.07356345	          0.01776690	          0.04733829	          0.09043980	          0.23534955	          0.27849243	          0.08204400	          0.20467965	          0.08598661	          0.10145401	          0.05347030	          0.03569458	          0.02149874	          0.01818621	          0.01906739	          0.06401056	          0.01838674	          0.03837871	          0.03394831	          0.05235306	          0.12375565	          0.01397930	          0.11035146	          0.25472613	          0.18636716	          0.19509693	          0.01066897	          0.12036717	          0.09154721	          0.01014588	          0.01005585	          0.01009952	          0.01033289	          0.04216479	          0.01007507	          0.01237531	          0.01013641	          0.01038880	          0.05793268	          0.33531392	          0.60199042	          0.08909776	          0.01682737	          0.01727335	          0.32209573	          0.46759877	          0.02606897	          0.02438721	          0.01007740	          0.13772818	          0.07556398	          0.05395561	          0.07273163	          0.05969899	          0.06954709	          0.04726608	          0.50995482	          0.07176075	          0.71770039	          0.37154333	          0.44732309	          0.12230425	          0.60942199	          0.15782867	          0.13599175	          0.05660795	          0.10527160	          0.65271913	          0.01726159	          0.01001793	          0.01000591	          0.12161153	
          0.82000000	         -3.94458298	          5.27182041	        -42.35842770	          1.13454793	          0.92162153	          0.21545342	         21.73638354	          4.83146140	          3.64626146	          8.48344361	         -8.84174203	         -8.17930872	         29.49190770	         34.43536099	          3.79458076	         -1.85057241	        -15.64967038	         -9.39294856	         -6.09346920	        -38.74175149	        -21.77329855	         -0.75660651	         -1.90103752	        -28.56022513	        -24.34151872	         16.72176049	        -33.83497283	        -37.01403045	        -10.05489167	         45.82068783	         90.05611758	         68.31204583	         91.40213811	          0.01500046	          0.01444968	          0.03314752	          0.05587188	          0.02005567	          0.02061052	          0.12734117	          0.06732973	          0.06133026	          0.01482946	          0.03958909	          0.07541582	          0.19613472	          0.23208161	          0.12936522	          0.25936875	          0.07169652	          0.12095336	          0.07669827	          0.06494260	          0.05091883	          0.03334472	          0.02622270	          0.05336724	          0.01537113	          0.03213829	          0.09092008	          0.06941502	          0.10314265	          0.04633935	          0.09199884	          0.21228789	          0.15533178	          0.16258360	          0.04367350	          0.10031479	          0.07630760	          0.02819178	          0.06028020	          0.03362072	          0.01683307	          0.61438409	          0.01005262	          0.01032205	          0.01018233	          0.45010145	          0.04829077	          0.27955922	          0.82874495	          0.43719902	          0.01403296	          0.01439822	          0.26841498	          0.38966693	          0.02172881	          0.02032494	          0.01004552	          0.11477536	          0.06297390	          0.04496996	          0.06061635	          0.04976238	          0.05799521	          0.23517067	          0.42512244	          0.15582645	          0.59843194	          0.35754796	          0.81574245	          0.20272266	          0.58149060	          0.13152937	          0.11333716	          0.04717387	          0.08773544	          0.88421516	          0.01438662	          0.01001821	          0.01000610	          0.10134402	
          0.83000000	         -4.17085206	          3.81543417	        -42.46556940	          1.13807256	          0.92147137	          0.21697711	         20.12067716	          3.48728841	          3.30646862	         10.28274479	         -7.84880618	         -7.72074139	         28.85013542	         39.49837618	          4.29892870	         -2.30972081	        -15.09549631	        -11.61081428	         -8.12524256	        -35.64948460	        -21.91004561	          0.56413064	         -0.89893677	        -25.97894108	        -23.38788343	         12.94046824	        -34.47429659	        -34.87044001	        -11.28249198	         46.95960450	         86.10149223	         70.27962124	         88.29836407	          0.01252908	          0.01206292	          0.02766694	          0.04661685	          0.01674500	          0.01721143	          0.10614485	          0.05623788	          0.15298085	          0.07258696	          0.03302267	          0.06286141	          0.16344976	          0.19340390	          0.14260409	          0.21916791	          0.05977573	          0.25636094	          0.17847176	          0.18136968	          0.08090379	          0.08948906	          0.05823383	          0.04449971	          0.01292091	          0.08610630	          0.07586942	          0.08787660	          0.08596761	          0.03865917	          0.07672403	          0.17692307	          0.12946733	          0.13548792	          0.05731175	          0.29072755	          0.06360347	          0.02354671	          0.05024855	          0.02805496	          0.37553103	          0.57894303	          0.01050643	          0.01005734	          0.08517760	          0.39597705	          0.04024706	          0.23306951	          0.69064171	          0.36435853	          0.01170070	          0.01200072	          0.22368468	          0.32472655	          0.01811171	          0.01693975	          0.01009107	          0.09564831	          0.05248206	          0.03747997	          0.05052180	          0.04148103	          0.04834690	          0.29182154	          0.54496308	          0.32929465	          0.49871913	          0.29798173	          0.72640536	          0.18179530	          0.48467114	          0.10961278	          0.09446235	          0.03931192	          0.07318622	          0.73685499	          0.01199010	          0.01003771	          0.01001295	          0.08445460	
